<?xml version="1.0" encoding="UTF-8" standalone="no"?>
<!-- Created with Inkscape (http://www.inkscape.org/) -->

<svg
   width="1000"
   height="300"
   viewBox="0 0 264.58333 79.375"
   version="1.1"
   id="svg1"
   xml:space="preserve"
   inkscape:version="1.4.3 (0d15f75, 2025-12-25)"
   sodipodi:docname="brew_booke_title.svg"
   inkscape:export-filename="brew_booke_title.png"
   inkscape:export-xdpi="144"
   inkscape:export-ydpi="144"
   xmlns:inkscape="http://www.inkscape.org/namespaces/inkscape"
   xmlns:sodipodi="http://sodipodi.sourceforge.net/DTD/sodipodi-0.dtd"
   xmlns="http://www.w3.org/2000/svg"
   xmlns:svg="http://www.w3.org/2000/svg"><sodipodi:namedview
     id="namedview1"
     pagecolor="#ffffff"
     bordercolor="#666666"
     borderopacity="1.0"
     inkscape:showpageshadow="2"
     inkscape:pageopacity="0.0"
     inkscape:pagecheckerboard="0"
     inkscape:deskcolor="#d1d1d1"
     inkscape:document-units="mm"
     inkscape:zoom="0.87115577"
     inkscape:cx="614.12668"
     inkscape:cy="-97.571529"
     inkscape:window-width="2324"
     inkscape:window-height="2080"
     inkscape:window-x="2580"
     inkscape:window-y="0"
     inkscape:window-maximized="0"
     inkscape:current-layer="layer3" /><defs
     id="defs1" /><g
     inkscape:groupmode="layer"
     id="layer3"
     inkscape:label="Line"
     transform="matrix(0.85274787,0,0,0.85274787,15.589257,-7.6760389)"><path
       style="display:inline;fill:#ab7349;fill-opacity:1;stroke:#99683d;stroke-width:0.120179px;stroke-linecap:butt;stroke-linejoin:miter;stroke-opacity:0"
       d="m 255.0072,49.439057 c 0.0759,0.622609 -0.0975,2.723306 -0.2595,3.329611 -0.24428,0.91394 -0.57131,1.904254 -0.90759,2.788991 -0.52337,1.377033 -1.14323,2.682948 -1.82207,3.991503 -0.64165,1.236857 -1.3861,2.468472 -2.13367,3.645334 -1.21081,1.906179 -2.65992,3.727009 -4.15304,5.424669 -0.9213,1.04751 -1.82962,2.01502 -2.88417,2.93044 -1.5079,1.30896 -3.01868,2.63505 -4.69524,3.72327 -2.15297,1.39748 -4.47101,2.54795 -6.83019,3.5658 -1.5014,0.64776 -3.03218,1.28515 -4.63683,1.60656 -2.38992,0.47872 -5.15662,0.86981 -7.58299,0.6365 -2.34487,-0.22549 -4.48308,-0.80682 -6.45509,-2.08507 -1.61689,-1.04805 -2.85639,-2.65408 -3.69288,-4.38158 -0.78577,-1.6228 -1.04984,-3.01279 -1.32269,-5.13558 -0.20813,-1.61927 0.012,-4.14996 0.44173,-5.72599 0.75392,-2.764776 1.03711,-2.9839 1.89292,-4.679051 0.89978,-1.782232 1.8411,-3.260575 3.00534,-4.885108 1.4327,-1.99911 3.22682,-4.082006 4.99083,-5.800609 1.93906,-1.889162 4.03264,-3.684425 6.39459,-5.017513 3.7805,-2.133736 5.09448,-2.714529 8.0837,-3.742713 1.36472,-0.469416 3.39357,-0.831617 4.81104,-1.10648 1.3861,-0.268783 2.78969,-0.521268 4.20173,-0.539868 1.51677,-0.01999 3.08399,-0.0036 4.52666,0.460818 1.05393,0.339205 2.18694,0.794219 3.068,1.460721 0.75133,0.568354 2.45612,1.893119 2.99648,2.662157 0.59857,0.85189 1.55757,2.118004 1.99196,3.145032 0.45385,1.069239 0.79908,2.318052 0.97097,3.728156 z"
       id="path4"
       sodipodi:nodetypes="ssssssssssssssssssssssssscs" /><path
       style="display:inline;fill:#724824;fill-opacity:1;stroke:#724824;stroke-width:0.123328px;stroke-linecap:butt;stroke-linejoin:miter;stroke-opacity:1"
       d="m 251.71357,58.768946 c 0.19163,-0.478966 0.55186,-1.666203 0.74858,-2.548723 0.1967,-0.882521 0.22867,-1.619863 0.28531,-2.282559 0.0566,-0.662695 -0.0431,-1.107789 -0.18157,-1.530349 -0.13849,-0.42256 -0.24196,-0.665814 -0.44094,-0.959707 -0.19898,-0.293901 -0.40048,-0.598061 -0.49283,-0.855959 -0.0924,-0.257905 -0.13685,-0.51828 -0.10375,-0.778147 0.0331,-0.259857 0.045,-0.513934 0.28532,-0.804083 0.24029,-0.290142 0.57227,-0.50915 1.03753,-0.622516 0.46527,-0.11336 1.22642,-0.09988 1.66003,0.103757 0.43363,0.203637 0.58412,0.465626 0.83002,0.881895 0.24591,0.416268 0.37666,1.02956 0.38908,1.634106 0.0124,0.604537 -0.01,1.011163 -0.23345,1.789727 -0.22346,0.778557 -0.5228,1.69759 -0.98565,2.853193 -0.46283,1.155602 -1.24405,2.775497 -1.94536,4.072287 -0.70129,1.296783 -1.22374,2.142274 -2.25661,3.709152 -1.03288,1.566875 -3.09518,4.110845 -4.35761,5.498885 -1.26242,1.38803 -1.67616,1.83864 -3.00882,2.95695 -1.33265,1.11829 -2.89346,2.49565 -4.87637,3.73508 -1.98291,1.23944 -5.06493,2.71081 -7.05517,3.52759 -1.99023,0.81677 -2.72291,1.18662 -4.77261,1.55629 -2.0497,0.36966 -5.33012,0.78153 -7.76364,0.49466 -2.43351,-0.28687 -4.74435,-1.04837 -6.5542,-2.2844 -1.80986,-1.23602 -2.88904,-2.84856 -3.68322,-4.59105 -0.79418,-1.74248 -1.2634,-3.1099 -1.32012,-5.14214 -0.0567,-2.03221 -0.004,-3.84033 0.64573,-6.063123 0.65008,-2.2228 1.09871,-3.006813 2.03208,-4.77891 0.93335,-1.772099 1.80851,-3.129038 3.17335,-4.967531 1.36484,-1.838491 3.64567,-4.191297 5.5756,-6.00988 1.92996,-1.818585 4.16757,-3.497346 6.60478,-4.925822 2.43721,-1.428477 5.71473,-2.822692 7.95535,-3.547716 2.24059,-0.725023 3.56805,-0.88741 5.00645,-1.137628 1.43839,-0.25022 2.80858,-0.478086 4.30572,-0.466887 1.49714,0.0112 3.34949,0.130371 4.617,0.570638 1.26749,0.440269 2.26709,1.000528 3.08847,1.653748 0.82137,0.653221 1.65032,1.301621 2.21549,2.148416 0.56518,0.846789 0.73633,1.077027 0.97306,1.543696 0.23673,0.466669 0.24158,0.87234 0.25938,1.138674 0.0179,0.266335 0.0263,0.454418 -0.10374,0.67439 -0.13004,0.219964 -0.31151,0.359648 -0.6744,0.51876 -0.3629,0.159112 -0.79271,0.104343 -1.50442,0.259379 -0.7117,0.155045 -1.64028,0.39528 -2.74943,0.726273 -1.10916,0.330984 -2.26795,0.577072 -3.89073,1.296907 -1.62277,0.719826 -4.0315,1.897646 -5.70639,3.216328 -1.67488,1.318675 -2.86096,2.991378 -4.25385,4.56511 -1.39288,1.573724 -2.65431,3.275104 -4.09822,4.876363 -1.44392,1.601262 -3.10862,3.397035 -4.56512,4.720745 -1.45647,1.3237 -2.86212,2.44522 -4.09822,3.2682 -1.23609,0.82298 -1.96783,1.23348 -3.03476,1.55629 -1.06694,0.3228 -1.70332,0.47218 -2.64569,0.59657 -0.94236,0.1244 -2.00655,-0.088 -2.41224,-0.38907 -0.4057,-0.30101 -0.38398,-0.66284 -0.38907,-0.98565 -0.006,-0.32281 -0.0327,-0.43704 0.18156,-0.72625 0.21422,-0.28924 0.51047,-0.54728 0.98566,-0.72628 0.47518,-0.17901 1.17823,-0.13755 1.81566,-0.15563 0.63743,-0.0181 1.21826,0.0812 1.91943,0.0259 0.70117,-0.0552 1.12068,-0.0169 2.28255,-0.3372 1.16188,-0.32029 3.0082,-1.55657 4.30573,-2.43819 1.29753,-0.88161 1.93211,-1.30773 3.47571,-2.801311 1.54359,-1.493583 4.01471,-4.631683 5.49888,-6.380784 1.48417,-1.749094 2.32183,-2.954873 3.42383,-4.098225 1.10199,-1.143344 1.9957,-1.924803 3.11258,-2.801318 1.11688,-0.876507 2.77405,-1.895423 3.57946,-2.438182 0.8054,-0.542752 0.85562,-0.535024 1.24502,-0.830021 0.38942,-0.294989 0.81665,-0.558484 1.08941,-0.93377 0.27276,-0.375287 0.54358,-0.796142 0.61887,-1.257545 0.0753,-0.461397 -0.0804,-1.127705 -0.26642,-1.565148 -0.18602,-0.437444 -0.22964,-0.567052 -0.69669,-1.050952 -0.46704,-0.483897 -1.10237,-0.941177 -1.66916,-1.156526 -0.56679,-0.215349 -1.33255,-0.572919 -3.08643,-0.602871 -1.75385,-0.02995 -1.9777,0.0239 -3.62429,0.255714 -1.64657,0.23181 -3.25297,0.581811 -4.72334,1.000843 -1.47036,0.419032 -1.97662,0.625765 -3.52676,1.185723 -1.55014,0.559957 -2.68333,1.207137 -4.29038,2.122875 -1.60705,0.915737 -4.17098,2.943247 -5.75808,4.378754 -1.5871,1.43551 -3.2011,3.027066 -4.2587,4.522445 -1.05761,1.495388 -2.13331,2.502685 -2.7769,3.807195 -0.64362,1.30451 -1.34324,2.662354 -1.75604,3.793416 -0.41279,1.131063 -0.649,2.520322 -0.77545,3.792618 -0.12645,1.27228 0.128,2.36905 0.25751,3.46589 0.12951,1.09684 0.55433,2.53545 1.1928,3.81507 0.63844,1.27961 1.30914,2.31033 2.24991,3.33907 0.94077,1.02874 1.95904,1.78874 3.0607,2.47234 1.10165,0.68359 2.19022,1.04744 3.42384,1.40065 1.23362,0.35322 2.60615,0.63892 3.94259,0.67439 1.33645,0.0355 2.21663,0.0231 3.99447,-0.33719 1.77784,-0.36026 4.04147,-1.25777 5.79031,-1.93262 1.74885,-0.67484 2.80989,-1.41418 4.63439,-2.56679 1.82451,-1.15261 4.6392,-3.38698 6.43969,-5.28653 1.80048,-1.89958 2.75685,-3.06539 3.88563,-4.56803 1.12878,-1.502652 1.46023,-1.985841 1.96282,-2.861682 0.50259,-0.875843 1.11788,-2.193145 1.3095,-2.672102 z"
       id="path1"
       sodipodi:nodetypes="zzzzzzzzzzzzzzzzzzzzzzzzzzzzzzzzzzzzzzzzzzzzzzzzzzzzzzzzzzzzzzzzzzzzzzzzzzzzzzzzzzzzzzzzzzzz" /></g><g
     inkscape:groupmode="layer"
     id="layer1"
     inkscape:label="Title"><path
       style="font-size:50.8px;line-height:1.25;font-family:Pompiere;-inkscape-font-specification:Pompiere;letter-spacing:0px;word-spacing:0px;fill:#724824;stroke-width:0.264583"
       d="m 37.561152,39.730425 0.99219,-0.198437 q 3.74551,0.04961 5.85391,1.835547 2.1084,1.761133 2.1084,5.035347 0,3.99356 -2.38125,7.3918 -3.19981,4.58887 -9.00411,6.39961 -3.57187,1.09141 -4.56406,0.42168 -0.59531,-0.39687 -0.59531,-1.41387 l 0.24805,-19.893356 v -2.703711 q 0,-3.54707 -0.12403,-5.804297 -0.0992,-2.257226 -0.17363,-3.770312 -0.0744,-1.513086 -0.14883,-2.753321 -0.0496,-1.265039 0.0992,-1.5875 0.17363,-0.347265 0.44649,-0.520898 0.62011,-0.42168 3.47265,-0.967383 2.87735,-0.545703 4.44004,-0.545703 8.11113,0 8.11113,6.846094 0,5.55625 -5.8539,10.120312 -1.36426,1.066602 -2.92696,2.108398 z m -5.10976,18.553907 q 2.05879,-0.0744 3.91914,-0.91777 2.1084,-0.99219 3.39824,-1.95957 1.28984,-0.99219 2.30684,-2.28204 2.23242,-2.82773 2.23242,-6.44921 0,-2.554887 -2.00918,-3.919145 -1.81074,-1.215429 -4.56406,-1.215429 -2.38125,0 -3.96875,0.545703 -0.94258,0.322461 -1.48828,0.570508 0,0.570507 0.0248,1.215429 0,1.761133 0,3.844724 0.0248,2.0836 0.0496,4.16719 0.0496,4.48965 0.0992,6.39961 z m -0.17363,-17.933789 q 3.39824,-0.694532 7.21816,-4.067969 2.72852,-2.406055 3.91914,-5.357812 0.59531,-1.537891 0.59531,-3.075782 0,-1.53789 -0.49609,-2.505273 -0.47129,-0.992188 -1.28984,-1.612305 -1.5627,-1.116211 -4.29122,-1.116211 -3.10058,0 -5.53144,1.116211 0,0.322461 -0.0248,0.84336 -0.0248,0.892968 -0.0496,2.703711 -0.0496,3.621484 -0.0496,8.011913 z m 29.86484,2.505273 q 0,1.339453 -1.33945,1.537891 -1.63711,0.322461 -3.6959,2.802925 -2.20762,2.67891 -2.48047,5.2834 -0.0992,1.14102 -0.0992,2.0836 0,2.25722 0.19844,4.73769 0.0496,0.81856 -0.42168,1.24024 -0.44649,0.42168 -0.99219,0.42168 -0.5209,0 -0.91777,-0.37207 -0.39688,-0.39688 -0.32246,-1.16582 0.0744,-0.79375 0.12402,-1.81075 0.0496,-1.04179 0.0992,-2.18281 0.0496,-1.93477 0.0496,-4.31602 0,-4.01835 -0.0992,-5.95312 -0.0992,-1.95957 0.0248,-2.257227 0.12403,-0.297656 0.32247,-0.471289 0.42167,-0.396875 0.91777,-0.396875 0.5209,0 0.91777,0.372071 0.42168,0.37207 0.37207,0.967382 -0.0248,0.570508 -0.0992,1.141016 -0.0496,0.545703 -0.12402,1.364262 -0.14883,1.31464 -0.27285,2.80293 1.01699,-2.55489 2.90215,-4.712895 2.1084,-2.356445 3.67109,-2.356445 0.66973,0 0.96738,0.37207 0.29766,0.37207 0.29766,0.868164 z m 12.57598,7.168556 q 0.0496,-4.316017 -1.81075,-5.903517 -0.74414,-0.669726 -1.81074,-0.669726 -1.0666,0 -1.76113,0.396875 -0.69453,0.396875 -1.24023,1.066601 -0.5209,0.669727 -0.89297,1.537887 -0.34727,0.84336 -0.57051,1.73633 -0.22324,0.94258 -0.32246,1.86035 l 3.39824,0.14883 q 3.32383,0 5.01055,-0.17363 z m -8.50801,2.15801 q 0.0496,3.42304 1.24023,5.23379 1.28985,1.93476 3.64629,1.93476 2.15801,0 3.1502,-2.1332 0.62011,-1.38906 1.53789,-1.38906 0.42168,0 0.69453,0.27285 0.29766,0.27285 0.27285,0.96738 -0.0248,0.66973 -0.49609,1.46348 -0.44649,0.79375 -1.26504,1.41386 -1.78594,1.38907 -4.29121,1.38907 -2.70371,0 -4.66328,-2.30684 -2.05879,-2.43086 -2.05879,-5.77949 0,-3.34863 0.5705,-5.43223 0.59532,-2.108397 1.5627,-3.497459 1.88516,-2.80293 4.71289,-2.80293 3.62149,0 5.08496,2.852539 1.01699,1.98437 1.09141,5.8291 0.0248,1.09141 -0.34727,1.46348 -0.37207,0.37207 -1.51308,0.37207 z m 29.93925,5.03535 q 0.17364,-0.62012 0.34727,-1.28985 0.44648,-1.68671 0.94258,-3.62148 0.79375,-3.24941 2.1084,-9.028906 0.14883,-0.744141 0.570498,-1.066602 0.44649,-0.347265 0.86817,-0.347265 0.42168,0 0.76894,0.37207 0.37207,0.347266 0.37207,0.843359 0,0.496094 -0.22324,1.091406 -0.22324,0.570508 -0.64492,1.835548 -0.39687,1.26504 -0.86816,2.82773 -0.446488,1.53789 -0.942578,3.22461 -0.47129,1.66192 -0.89297,3.175 -0.69453,2.48047 -1.01699,3.74551 -0.32246,1.26504 -0.71934,1.51309 -0.37207,0.24804 -0.76894,0.24804 -0.91778,0 -1.16582,-0.86816 -0.54571,-2.05879 -1.5875,-6.49883 -1.28985,-5.50664 -2.00918,-8.334373 -0.17364,0.694531 -0.34727,1.513083 -0.47129,1.93477 -1.0418,4.16719 -1.43867,5.85391 -2.38125,8.9793 -0.14882,0.42168 -0.5457,0.71933 -0.39687,0.29766 -0.79375,0.29766 -0.91777,0 -1.14101,-0.84336 -0.64493,-2.18281 -1.19063,-4.14238 -0.5457,-1.98438 -1.09141,-3.86953 -1.11621,-3.81993 -2.43086,-7.292583 -0.24804,-0.719335 -0.24804,-1.364257 0,-0.644922 0.32246,-0.992188 0.34726,-0.347265 0.79375,-0.347265 1.19062,0 1.53789,1.339453 0.37207,1.314648 0.71934,2.80293 0.37207,1.46348 0.71933,3.02617 0.37207,1.53789 0.71934,3.07578 0.37207,1.51309 0.74414,2.87735 0.39687,1.53789 0.74414,2.60449 l 3.34863,-14.039455 q 0.44649,-1.661914 1.71152,-1.661914 1.31465,0 1.68672,1.761133 1.86035,9.524996 3.02617,13.568166 z m 27.458798,-17.487307 0.99218,-0.198437 q 3.74551,0.04961 5.85391,1.835547 2.1084,1.761133 2.1084,5.035347 0,3.99356 -2.38125,7.3918 -3.19981,4.58887 -9.0041,6.39961 -3.57188,1.09141 -4.56407,0.42168 -0.59531,-0.39687 -0.59531,-1.41387 l 0.24805,-19.893356 v -2.703711 q 0,-3.54707 -0.12402,-5.804297 -0.0992,-2.257226 -0.17364,-3.770312 -0.0744,-1.513086 -0.14883,-2.753321 -0.0496,-1.265039 0.0992,-1.5875 0.17364,-0.347265 0.44649,-0.520898 0.62011,-0.42168 3.47265,-0.967383 2.87735,-0.545703 4.44004,-0.545703 8.11114,0 8.11114,6.846094 0,5.55625 -5.85391,10.120312 -1.36426,1.066602 -2.92695,2.108398 z m -5.10977,18.553907 q 2.05879,-0.0744 3.91914,-0.91777 2.1084,-0.99219 3.39824,-1.95957 1.28985,-0.99219 2.30684,-2.28204 2.23242,-2.82773 2.23242,-6.44921 0,-2.554887 -2.00918,-3.919145 -1.81074,-1.215429 -4.56406,-1.215429 -2.38125,0 -3.96875,0.545703 -0.94258,0.322461 -1.48828,0.570508 0,0.570507 0.0248,1.215429 0,1.761133 0,3.844724 0.0248,2.0836 0.0496,4.16719 0.0496,4.48965 0.0992,6.39961 z m -0.17363,-17.933789 q 3.39824,-0.694532 7.21816,-4.067969 2.72852,-2.406055 3.91914,-5.357812 0.59532,-1.537891 0.59532,-3.075782 0,-1.53789 -0.4961,-2.505273 -0.47129,-0.992188 -1.28984,-1.612305 -1.5627,-1.116211 -4.29121,-1.116211 -3.10059,0 -5.53145,1.116211 0,0.322461 -0.0248,0.84336 -0.0248,0.892968 -0.0496,2.703711 -0.0496,3.621484 -0.0496,8.011913 z m 27.35957,3.695898 q -0.81856,-0.595312 -1.93477,-0.595312 -1.09141,0 -2.00918,0.620117 -0.89297,0.595312 -1.51308,1.686716 -1.26504,2.18281 -1.26504,6.00274 0,3.79511 1.21543,5.60586 1.21543,1.81074 3.24941,1.81074 2.23242,0 3.57188,-2.55488 1.19062,-2.28204 1.19062,-5.60586 0,-5.10977 -2.50527,-6.970121 z m -2.28203,17.239261 q -1.41387,0.0248 -2.65411,-0.57051 -1.21543,-0.62012 -2.10839,-1.90996 -1.95957,-2.72852 -1.95957,-7.76387 0,-4.51445 2.10839,-7.118944 1.98438,-2.480469 5.2586,-2.480469 2.75332,0 4.56406,2.38125 1.86035,2.530073 1.86035,6.945313 0,4.91133 -2.15801,7.83828 -1.93476,2.6293 -4.91132,2.67891 z m 19.96776,-17.239261 q -0.81855,-0.595312 -1.93476,-0.595312 -1.09141,0 -2.00918,0.620117 -0.89297,0.595312 -1.51309,1.686716 -1.26504,2.18281 -1.26504,6.00274 0,3.79511 1.21543,5.60586 1.21543,1.81074 3.24942,1.81074 2.23242,0 3.57187,-2.55488 1.19063,-2.28204 1.19063,-5.60586 0,-5.10977 -2.50528,-6.970121 z m -2.28203,17.239261 q -1.41386,0.0248 -2.6541,-0.57051 -1.21543,-0.62012 -2.1084,-1.90996 -1.95957,-2.72852 -1.95957,-7.76387 0,-4.51445 2.1084,-7.118944 1.98438,-2.480469 5.2586,-2.480469 2.75332,0 4.56406,2.38125 1.86035,2.530073 1.86035,6.945313 0,4.91133 -2.15801,7.83828 -1.93476,2.6293 -4.91133,2.67891 z m 24.18457,-19.198831 q 0.49609,0 0.86816,0.37207 0.37207,0.37207 0.37207,0.967383 0,0.570508 -0.5705,1.389062 -0.54571,0.79375 -1.36426,1.711526 -0.79375,0.89297 -1.68672,1.81074 -0.76895,0.79375 -1.38906,1.48828 1.04179,3.175 3.62148,6.84609 0.71934,0.99219 1.11621,1.68672 0.39688,0.66973 0.39688,1.14102 0,0.44648 -0.44649,0.89297 -0.44648,0.44648 -0.91777,0.44648 -1.09141,0 -1.51309,-0.99219 -0.39687,-1.01699 -1.01699,-2.30683 -0.62012,-1.31465 -1.26504,-2.57969 -1.0666,-2.08359 -1.83555,-3.39824 -0.66972,0.64492 -1.46347,1.36426 -1.11621,1.01699 -1.71153,1.5875 -0.14882,0.14883 -0.29765,0.27285 v 0.0496 q 0,0.62012 0.0248,1.36426 0.0248,0.71933 0.0496,1.46347 0.0248,0.71934 0.0248,1.43867 0.0248,0.69454 -0.42168,1.11622 -0.44649,0.42167 -0.96739,0.42167 -0.49609,0 -0.89296,-0.37207 -0.39688,-0.37207 -0.34727,-1.53789 0.0496,-1.19062 0.0744,-3.12539 0.0496,-1.93476 0.0496,-4.14238 0.0496,-6.573242 0.0496,-9.649023 0,-3.100586 -0.0248,-6.474023 -0.0248,-3.373438 -0.0744,-6.498828 -0.14882,-7.019727 -0.49609,-10.31875 -0.0744,-0.79375 0.37207,-1.16582 0.47129,-0.396875 1.0418,-0.396875 0.59531,0 1.0666,0.396875 0.49609,0.37207 0.44648,1.314648 -0.0248,0.942578 -0.0496,2.406055 0,1.463476 0,3.199804 0.0496,5.208985 0.0496,7.714258 0,2.480469 -0.0248,5.208984 0,2.703711 -0.0248,5.457032 -0.0248,5.630663 0.0496,9.624223 2.53008,-2.35645 5.50664,-6.17637 1.43868,-1.835549 1.83555,-2.678908 0.66973,-1.339453 1.78594,-1.339453 z"
       id="text1"
       aria-label="Brew Book" /></g></svg>
